<svg version="1.1" id="Layer_1" xmlns="http://www.w3.org/2000/svg" xmlns:xlink="http://www.w3.org/1999/xlink" x="0px" y="0px"
	 width="100%" viewBox="0 0 1024 1024" enable-background="new 0 0 1024 1024" xml:space="preserve">
<path fill="#000000" opacity="1.000000" stroke="none" 
	d="
M351.570679,362.690125 
	C342.006897,365.756592 332.814880,368.706268 323.597687,371.574921 
	C311.177063,375.440521 299.064514,379.921539 287.589844,386.238342 
	C277.044189,392.043823 265.912292,397.043488 253.393158,395.238800 
	C243.456635,393.806396 233.949020,390.431885 225.393463,385.164917 
	C219.184387,381.342529 217.725037,374.848450 218.889725,368.000000 
	C219.963852,361.683929 224.450165,358.357697 230.395340,356.900299 
	C246.611069,352.925110 262.765106,348.432709 277.409637,340.386169 
	C307.183441,324.026703 338.126923,309.747650 366.613953,291.096924 
	C384.785126,279.200134 404.120117,270.328674 425.663483,266.298279 
	C422.130402,265.161804 418.660675,264.935669 415.146332,265.253662 
	C411.048553,265.624420 407.597076,264.219849 404.747803,261.357422 
	C389.789246,246.329575 391.823700,214.938583 408.524506,201.969376 
	C414.256866,197.517838 420.649475,198.270233 427.167847,199.157028 
	C448.260712,202.026611 469.380310,204.704315 490.457123,207.685638 
	C500.915924,209.165039 510.904602,205.520721 521.250977,205.445038 
	C528.976074,205.388535 536.450928,205.759491 543.959900,207.610474 
	C560.491333,211.685577 577.559387,212.129059 594.323303,214.674957 
	C618.306824,218.317276 640.296326,226.483643 659.337158,242.014404 
	C672.304504,252.591263 687.013367,260.505005 701.783203,268.248688 
	C706.339539,270.637512 711.404480,270.930878 716.320435,271.485748 
	C722.102478,272.138367 727.360413,273.940643 732.214355,276.979950 
	C744.074097,284.405975 755.982605,291.761719 767.678894,299.439148 
	C782.743225,309.327362 788.578857,324.791260 783.892151,343.549072 
	C780.829102,355.808868 776.836975,367.841248 771.891785,379.513641 
	C766.632263,391.928101 757.074524,400.715576 746.800476,408.791107 
	C739.207397,414.759369 731.465759,420.567017 723.509644,426.038116 
	C712.821533,433.387878 701.325623,438.166016 687.865356,435.449768 
	C678.645508,433.589233 672.014709,428.061432 666.491577,420.878601 
	C658.937195,411.054413 649.016174,403.493103 640.997986,394.117554 
	C639.318298,392.153564 637.744934,393.354523 636.093506,394.112213 
	C625.194519,399.112640 614.220947,403.956024 603.397583,409.114685 
	C579.511719,420.499146 555.239563,422.598877 530.394104,412.537537 
	C523.808167,409.870453 517.178955,409.818207 510.308960,411.224640 
	C485.066650,416.392365 459.426483,419.778320 435.089172,428.898712 
	C428.292511,431.445740 422.314758,435.312073 416.213593,438.984833 
	C411.918457,441.570435 410.002136,446.021271 410.348877,450.988770 
	C411.742249,470.950897 399.692322,482.292603 384.380432,491.304413 
	C378.500275,494.765106 371.701965,493.832336 365.329376,492.494049 
	C361.052734,491.595917 360.942444,487.420135 360.729980,483.989044 
	C360.273773,476.623535 361.950104,469.414062 363.076202,462.209686 
	C365.242859,448.348389 366.895386,434.514496 364.908325,420.496185 
	C363.390900,409.791229 367.258240,402.053253 377.147522,397.257721 
	C384.337891,393.771027 391.339722,389.893890 398.404449,386.150909 
	C400.131683,385.235809 402.169281,384.701630 403.557983,381.959229 
	C399.581512,378.169312 395.478973,374.155029 391.255463,370.272339 
	C388.669189,367.894836 386.310852,365.390350 384.287933,362.483643 
	C379.759491,355.976807 375.087433,354.389496 367.396332,356.843231 
	C362.167908,358.511230 357.081268,360.623596 351.570679,362.690125 
M652.133545,260.169952 
	C650.904480,258.595734 649.737000,256.968536 648.435730,255.456421 
	C642.823608,248.935135 642.809326,248.947449 649.233276,244.476181 
	C649.362671,243.075378 648.307617,242.416779 647.417053,241.708511 
	C635.080994,231.897797 621.333984,225.012360 605.717590,222.393280 
	C589.303040,219.640350 572.689575,218.603943 556.120972,217.209274 
	C552.684448,216.920013 549.152710,216.945114 546.114746,214.706757 
	C539.957153,210.169907 533.097351,210.217056 526.065002,212.024185 
	C524.143494,212.517960 522.346741,213.419998 520.239990,212.989014 
	C513.585632,211.627686 507.025146,212.316330 500.459412,213.826996 
	C490.605591,216.094223 480.708435,218.173218 470.442230,220.416946 
	C469.588745,213.518295 464.762756,212.201645 459.392212,211.390076 
	C451.669678,210.223114 443.985321,208.805756 436.271332,207.578995 
	C430.362030,206.639221 424.457245,205.504852 418.505005,205.043304 
	C411.111450,204.469986 405.811127,210.213440 406.274078,217.576965 
	C406.380859,219.275482 406.764496,220.418976 408.745392,220.614441 
	C416.558990,221.385468 424.002197,223.953049 431.672424,225.418747 
	C433.721649,225.810333 436.390564,226.871994 437.755066,224.731461 
	C441.652496,218.617645 446.819763,222.669800 448.735229,224.914154 
	C453.099243,230.027496 456.610291,229.654877 461.148193,226.090576 
	C461.423004,225.874741 462.074219,226.138138 462.595215,226.182373 
	C463.755737,227.497726 462.908478,229.618271 464.439911,230.671310 
	C466.264252,230.863770 468.056000,231.137711 469.856964,231.227921 
	C477.210297,231.596268 483.846771,237.090149 491.681854,234.272980 
	C492.226593,234.077118 493.251862,234.789627 493.870758,235.301025 
	C496.795685,237.717743 500.176666,238.141541 503.767365,237.723129 
	C508.391327,237.184311 512.999878,236.294022 517.635864,236.125549 
	C525.721375,235.831696 534.603210,233.002792 540.027344,242.106628 
	C542.336731,241.728012 543.214417,239.947586 544.564026,238.783829 
	C545.995117,237.549850 546.917542,235.345230 549.419373,236.143951 
	C551.561829,238.338409 549.144775,240.985626 550.150818,243.315582 
	C550.688721,243.412384 551.230530,243.689163 551.627747,243.550873 
	C553.508728,242.895950 555.354797,242.139175 557.204285,241.396271 
	C558.749634,240.775543 560.559937,239.772369 561.745972,241.453003 
	C563.037170,243.282791 561.229004,244.545654 560.011902,245.567657 
	C540.903320,261.613220 520.515930,275.648224 496.841034,284.144226 
	C484.512695,288.568359 472.397980,293.501282 462.733063,302.431488 
	C453.578094,310.890472 443.465820,317.734375 432.751953,323.873199 
	C431.307007,324.701111 429.405487,325.484863 429.500916,327.342590 
	C429.825653,333.663971 429.968048,340.047394 431.724396,346.459869 
	C438.412872,342.663574 438.403076,342.669067 441.730469,348.583405 
	C442.049530,349.150543 442.552246,349.631500 443.030334,350.089142 
	C445.317474,352.278412 444.388763,353.830658 442.086609,355.171722 
	C439.449768,356.707764 436.832764,358.277954 434.207123,359.833313 
	C434.461853,360.258972 434.716583,360.684662 434.971313,361.110321 
	C439.918884,359.174591 446.990479,361.362488 448.628387,352.980499 
	C449.012604,351.014374 450.817200,351.455933 452.345276,351.544403 
	C454.360046,351.660980 456.878296,353.520599 458.274475,350.953827 
	C459.886597,347.990051 456.743408,346.644440 455.365509,344.743591 
	C455.073761,344.341156 454.717133,343.982330 454.367279,343.626007 
	C451.944061,341.158020 451.968048,339.621948 455.357819,337.610596 
	C462.357880,333.457153 469.227203,328.985199 475.658203,324.008362 
	C479.415070,321.101044 482.148499,317.752167 487.721832,320.286530 
	C490.348938,321.481171 493.572327,319.601898 496.153229,318.032715 
	C498.710175,316.478088 501.128265,314.690491 503.573456,312.957428 
	C508.601074,309.393982 513.455750,305.561157 518.654480,302.270233 
	C527.317810,296.786163 537.155640,295.388580 546.319519,299.255798 
	C550.431396,300.991028 554.428162,301.499298 558.191406,301.521057 
	C561.388794,301.539551 562.193787,302.527954 563.201355,304.740265 
	C564.302185,307.157471 564.270386,310.166321 566.941528,312.416901 
	C568.931641,307.173187 564.677734,301.721527 568.547852,296.293701 
	C571.792297,300.779144 570.220154,305.871338 572.483215,309.940338 
	C575.171631,303.386871 568.162964,294.318054 579.393005,290.696686 
	C587.028870,288.234406 593.999329,285.848419 600.886536,294.108337 
	C602.252319,283.379272 610.812439,281.194336 616.767395,276.482330 
	C619.406372,274.394165 622.721069,274.772980 625.794861,276.300171 
	C627.063477,276.930511 628.592712,278.246857 629.836182,276.619751 
	C632.843872,272.684296 636.854065,273.630585 640.553955,274.194092 
	C642.335449,272.973053 640.954651,270.627991 643.337158,269.363098 
	C650.562805,272.337616 658.125427,276.531189 667.330688,274.224396 
	C665.305725,269.925720 660.747559,268.146698 659.796204,264.248993 
	C656.922668,263.123383 652.456055,266.736755 652.133545,260.169952 
M427.914673,287.614502 
	C429.334534,287.777771 430.754395,287.941040 432.102295,288.096039 
	C433.070099,286.603638 433.540192,283.742920 435.275177,284.720856 
	C438.307465,286.429993 441.357269,284.517426 444.098816,286.028473 
	C444.960999,284.281128 443.710297,282.225250 445.474701,281.161255 
	C449.071655,278.992126 447.639130,276.465179 446.044708,273.968109 
	C442.851562,268.967255 439.485840,268.120056 433.186005,269.687317 
	C397.630493,278.532928 365.648865,294.762390 335.769592,315.711151 
	C319.523956,327.101196 302.078033,336.541168 283.847778,344.487213 
	C268.403381,351.218994 252.538773,356.712006 236.335236,361.272278 
	C232.616013,362.319000 228.877304,363.431396 226.909576,367.200226 
	C225.094803,370.676086 226.209229,372.491394 230.096268,372.800262 
	C234.080582,373.116821 237.740509,371.798981 241.155151,370.156586 
	C252.852798,364.530029 265.870178,362.862396 277.728424,357.736969 
	C279.337921,357.041321 281.372803,356.791779 283.114380,357.032532 
	C290.760895,358.089630 297.394714,355.244293 304.032349,352.025452 
	C305.093628,352.927521 306.156799,353.831207 307.444733,354.925934 
	C308.226593,351.524658 304.237671,347.184387 309.831512,345.734589 
	C312.640808,345.006439 315.684753,341.466614 318.489807,345.752289 
	C320.396973,337.568817 324.600403,336.239685 330.848846,341.937012 
	C333.481995,344.337921 335.961395,346.974792 340.130981,348.910614 
	C338.729553,345.634216 337.660706,343.241638 336.679291,340.813782 
	C335.477203,337.839966 334.880737,334.812561 335.540924,331.557159 
	C336.659698,326.040649 338.114716,325.384552 342.702362,328.587982 
	C344.331482,329.725586 345.972107,331.391571 348.025299,329.683716 
	C357.835449,321.523590 371.018402,318.923737 380.353912,310.005188 
	C381.259277,309.140259 382.212158,308.590424 383.461884,309.336884 
	C384.723358,310.090393 384.594086,311.196808 384.331848,312.403839 
	C383.854156,314.602539 382.100739,316.543640 382.996826,319.378113 
	C385.679596,319.783386 388.442841,320.268982 391.224976,320.591370 
	C392.550140,320.744965 394.445953,320.656677 394.265411,318.929413 
	C393.855896,315.010925 396.679871,314.994995 398.992859,314.719391 
	C399.426056,309.679474 392.591064,305.765411 396.061646,301.811066 
	C398.947266,298.523224 404.571136,297.638245 408.983185,295.691467 
	C409.287781,295.557068 409.608002,295.457428 409.910004,295.317993 
	C413.617920,293.606201 417.305237,291.629517 422.428101,296.090240 
	C419.876831,290.625732 420.115570,288.114227 425.351532,289.232513 
	C425.888855,289.347260 426.661377,288.360718 427.914673,287.614502 
M661.653259,344.142181 
	C663.736450,342.473816 666.504578,341.568695 668.117004,338.848572 
	C664.146545,337.362549 658.317139,340.736603 657.952759,333.780701 
	C654.607971,334.277161 653.552856,339.626007 650.223267,337.577118 
	C647.212097,335.724152 649.180359,331.714172 648.753540,328.685822 
	C648.661499,328.032440 648.731323,327.355896 648.731262,326.690002 
	C648.730530,320.340363 648.730835,313.990723 648.730835,307.641083 
	C647.373291,308.583313 647.246033,309.566284 646.920349,310.478394 
	C646.390930,311.960846 646.326721,314.213226 644.047180,313.849121 
	C641.947205,313.513733 642.142273,311.380371 642.041382,309.780487 
	C641.916870,307.805725 642.011658,305.817169 642.011658,303.834564 
	C641.492493,303.848999 640.973328,303.863434 640.454163,303.877869 
	C640.064209,311.790985 639.678223,319.704315 639.282166,327.617188 
	C639.132690,330.605072 639.088013,333.606750 638.741760,336.572540 
	C638.578430,337.971954 637.577209,339.069916 635.901184,338.520721 
	C634.521729,338.068695 634.401917,336.893219 634.682434,335.643982 
	C636.560730,327.279114 635.443481,318.763885 635.894043,310.326721 
	C636.069031,307.050690 635.800537,303.675201 634.305115,301.284210 
	C625.495239,300.880707 629.885925,291.780518 625.419678,289.036835 
	C622.920654,289.842072 620.887390,290.939240 621.246887,294.197266 
	C621.402954,295.611786 621.566772,297.419037 619.602905,297.888367 
	C618.063904,298.256134 617.250061,296.912170 616.361267,295.953979 
	C615.569641,295.100494 614.858582,294.172821 614.085083,293.301727 
	C613.087769,292.178619 612.116211,290.856842 610.328369,291.798553 
	C608.850952,292.576813 608.204895,293.925873 608.365601,295.541595 
	C608.562439,297.519684 608.988159,299.474792 609.190857,301.452545 
	C609.310852,302.623810 609.203186,303.872833 607.883972,304.415833 
	C606.519592,304.977539 605.766174,303.947235 604.935364,303.127472 
	C603.302673,301.516571 602.551758,299.111328 600.415161,297.985718 
	C594.666870,301.239899 593.481018,304.255341 594.540955,311.827667 
	C595.346497,317.582367 595.830200,323.381897 596.621399,329.138916 
	C597.125488,332.807190 595.404968,333.625153 592.279907,332.977295 
	C590.141418,332.533966 588.034302,331.707642 585.494385,332.152435 
	C589.671753,338.103394 591.599731,339.044647 597.745972,337.930389 
	C599.643738,337.586334 601.007141,338.147217 602.247314,339.358521 
	C604.853699,341.904114 608.099182,343.026855 611.552246,343.849854 
	C621.899597,346.316010 632.212646,348.926788 642.567810,351.358887 
	C646.228638,352.218719 649.783813,351.982971 653.044312,349.616669 
	C655.597473,347.763733 658.377014,346.222778 661.653259,344.142181 
M411.953613,397.434509 
	C414.712830,395.424042 418.105652,394.244781 420.379150,391.249725 
	C417.670013,387.179138 413.982758,386.828217 410.278656,388.620850 
	C399.502136,393.836060 388.687897,399.034882 378.657898,405.621368 
	C374.250732,408.515503 371.748840,412.632080 372.240784,418.282379 
	C372.691132,423.454681 371.434418,428.526642 370.777405,433.630005 
	C369.882355,440.582245 368.753021,447.734680 372.335632,454.153931 
	C374.953613,458.844849 374.419037,462.973480 372.366791,467.405975 
	C371.600281,469.061523 370.817474,470.736420 370.309448,472.480408 
	C366.975159,483.926880 370.356201,487.815063 382.133728,486.148834 
	C382.366272,486.115936 382.558380,485.797333 382.767395,485.609802 
	C378.502594,482.722076 378.456696,482.704132 379.814270,479.232391 
	C387.024261,460.794708 389.680145,441.819000 386.774017,422.139252 
	C386.544617,420.585846 385.831879,418.897583 386.810059,417.289856 
	C388.992340,416.070679 391.268494,418.480255 393.455078,417.178040 
	C392.502930,415.112335 389.827515,414.632782 389.188507,411.813293 
	C396.498871,407.184235 403.912048,402.490051 411.953613,397.434509 
M585.204102,392.546661 
	C582.877258,391.336304 580.550476,390.125916 578.247192,388.927795 
	C575.695862,393.043060 574.792236,393.096313 572.530579,389.414124 
	C572.008423,388.564087 571.547485,387.673706 571.100281,386.780884 
	C570.109497,384.802887 568.856140,383.989227 566.765869,385.479370 
	C564.767395,386.904144 564.169495,388.385498 565.988037,390.396393 
	C567.103088,391.629486 568.159363,392.929138 569.121338,394.284607 
	C571.429932,397.537689 568.739868,399.957336 567.448059,402.434692 
	C566.374512,404.493286 564.757324,403.356415 563.229797,402.434387 
	C555.151245,397.558044 546.754211,400.081421 542.173523,408.673340 
	C556.706238,417.673309 602.295410,406.117584 615.016113,395.092010 
	C607.744751,393.200043 600.407410,391.963196 596.276062,385.044220 
	C592.466309,388.394775 594.177979,397.498016 585.204102,392.546661 
M732.025330,377.575165 
	C739.692200,373.887390 744.024048,366.742645 749.502197,360.774719 
	C752.916809,357.054901 755.379578,353.408020 750.612305,348.945587 
	C750.030884,348.401337 749.816895,347.470184 750.658264,346.554138 
	C752.276306,345.121857 753.838501,348.231232 755.581726,346.894592 
	C758.699829,339.326019 754.871094,333.770966 746.890503,334.223816 
	C743.750000,334.401978 741.180237,335.617767 738.862061,337.753845 
	C731.983154,344.092499 725.805725,351.080933 719.711487,358.146820 
	C717.933899,360.207794 716.050232,362.784149 718.483765,365.208344 
	C720.905701,367.621124 722.653564,364.552429 724.341370,363.348724 
	C731.747925,358.066437 731.704163,358.005127 732.703613,366.798767 
	C733.541565,374.171936 732.848999,374.798706 725.842651,373.065063 
	C725.681824,373.025238 725.415588,373.411285 725.008911,373.762360 
	C726.593994,375.919891 728.059998,378.132111 732.025330,377.575165 
M684.514771,339.358337 
	C688.677002,341.022766 687.140503,344.561188 687.123840,347.533417 
	C687.112305,349.578003 685.645508,351.709595 687.591980,353.620605 
	C700.874268,340.530060 715.536743,316.995514 715.540039,308.751038 
	C714.182983,308.697296 713.520630,309.789246 712.755615,310.562683 
	C708.784912,314.577057 705.951965,320.350739 698.682800,319.022247 
	C697.535950,318.812683 696.894348,320.358276 696.243530,321.304840 
	C694.359924,324.044128 692.515076,326.809998 690.639587,329.554901 
	C689.839172,330.726440 688.810364,331.755585 687.358032,330.802307 
	C686.077881,329.962158 686.876343,328.797577 687.284973,327.695343 
	C687.878967,326.092865 689.698792,324.863342 688.945435,322.790222 
	C681.399780,323.706055 678.067810,326.061005 677.396057,330.940063 
	C679.592407,331.639435 681.700256,328.852295 684.016418,330.688202 
	C684.381653,332.728088 683.113403,334.208588 682.386414,335.832275 
	C681.631653,337.518158 681.747681,338.728302 684.514771,339.358337 
M540.399780,336.927246 
	C541.852356,337.271393 543.301208,337.632507 544.758545,337.955139 
	C546.328064,338.302612 548.108459,339.359894 549.364380,337.676514 
	C550.492859,336.163971 549.636353,334.488678 548.907715,332.978027 
	C546.672302,328.343628 544.490967,323.681122 542.149353,319.100769 
	C540.538574,315.950073 539.471313,312.427582 536.862549,309.956421 
	C535.125854,310.712646 535.362854,311.990417 535.261536,313.102783 
	C534.825806,317.890228 534.484131,322.687653 533.953857,327.464325 
	C533.740601,329.385529 533.821167,331.738892 531.640320,332.640656 
	C529.438171,333.551270 528.862976,330.706299 527.130249,330.173645 
	C525.709167,330.988983 526.703674,333.676025 524.307861,333.789581 
	C522.058167,333.380585 521.811768,330.373688 518.577576,329.129791 
	C524.693848,339.474091 514.714355,340.192596 510.684784,344.646454 
	C516.086243,344.101776 520.390198,341.350189 524.590637,338.795990 
	C529.465332,335.831726 534.199524,334.552155 540.399780,336.927246 
M443.454865,390.991028 
	C447.500519,392.346985 451.436432,394.164001 455.873718,394.186127 
	C454.918152,379.982758 435.806458,374.099030 417.471161,377.144897 
	C425.533386,383.189423 434.023926,387.148254 443.454865,390.991028 
M433.681793,238.611252 
	C430.515228,241.384750 428.226837,246.405319 422.549927,242.618515 
	C420.254059,246.867844 421.035492,250.301315 423.922180,253.714035 
	C427.074524,257.440826 430.845856,255.720825 433.817780,254.424927 
	C437.178589,252.959488 435.496796,249.141632 435.353363,246.325607 
	C435.228271,243.869568 434.516876,241.443405 433.681793,238.611252 
M419.987885,339.231110 
	C416.643036,341.295227 411.812775,341.387024 410.870667,346.637939 
	C410.580505,348.255310 408.693542,347.686340 407.401550,347.449799 
	C400.591705,346.203064 396.316071,350.353607 391.673828,354.379395 
	C394.163147,357.342163 396.289917,358.392487 399.466675,355.845428 
	C401.362305,354.325592 403.868652,353.537872 406.150665,352.535248 
	C411.903656,350.007629 416.551941,346.025360 420.815948,341.531769 
	C421.991150,340.293243 421.944885,340.249329 419.987885,339.231110 
M738.718994,287.758087 
	C735.827209,286.005585 732.847656,284.481781 728.558044,283.731049 
	C734.667297,288.841431 740.490784,292.655884 746.873718,295.701447 
	C745.153992,292.337341 742.348816,290.136383 738.718994,287.758087 
M520.634460,353.844879 
	C519.824951,354.545288 518.494873,354.736389 518.283020,356.852051 
	C524.494446,353.590088 530.436096,350.797363 535.132996,345.977753 
	C529.649048,347.024506 525.620667,350.626160 520.634460,353.844879 
M427.900482,424.690460 
	C430.216217,422.703796 428.900146,421.445068 426.850922,419.872864 
	C425.468475,425.417145 423.445465,420.797394 421.059906,420.035309 
	C422.417053,423.489319 421.588623,428.479492 427.900482,424.690460 
z"/>
<path fill="#000000" opacity="1.000000" stroke="none" 
	d="
M530.412109,669.497620 
	C527.362732,670.937744 524.609497,672.132080 521.976929,673.550354 
	C520.742310,674.215454 519.101746,674.972595 519.927307,676.965027 
	C520.625488,678.649963 522.101135,678.925476 523.679749,678.714905 
	C529.614258,677.923096 535.523804,676.900818 541.476318,676.294922 
	C560.039978,674.405273 576.889038,667.467529 593.375488,659.240845 
	C606.367798,652.757690 619.878906,647.586182 634.089966,644.356750 
	C637.118896,643.668396 640.040161,643.748718 642.963684,644.621033 
	C657.156982,648.856201 670.833191,665.719177 666.344116,682.609802 
	C664.758911,688.574646 661.397949,693.084412 656.230347,696.306885 
	C649.815674,700.307190 642.817444,702.986267 635.589050,705.045471 
	C629.488220,706.783447 623.565063,708.986450 617.725830,711.425049 
	C615.810120,712.225098 613.685303,712.899414 612.509338,715.144043 
	C614.762695,717.833435 617.701355,717.494446 620.416748,717.585205 
	C630.057434,717.907532 639.704407,716.008667 649.347900,717.652649 
	C650.163330,717.791687 651.085632,717.545593 651.830322,717.822510 
	C663.552917,722.181335 674.361694,718.333618 685.263000,714.394775 
	C700.614014,708.848022 716.005676,703.931641 732.700928,703.387085 
	C740.076904,703.146484 747.103516,698.610840 754.671387,697.160645 
	C767.077637,694.783447 779.193970,695.419373 791.065308,699.743408 
	C800.710999,703.256653 807.842407,713.382324 807.940002,723.636475 
	C807.982605,728.113647 806.637634,731.373047 801.266235,731.649475 
	C794.625366,731.991211 788.014099,732.890259 781.374023,733.269897 
	C777.590942,733.486206 774.936401,734.079773 775.151062,738.882996 
	C775.299927,742.214111 773.168457,744.841309 770.452271,746.721069 
	C768.818481,747.851868 767.082458,748.979736 765.223816,749.618591 
	C745.936035,756.248169 730.814148,768.794617 716.637451,782.949280 
	C707.859680,791.713501 697.480713,798.421204 685.938110,803.174683 
	C678.753662,806.133362 673.025024,811.286194 666.365356,815.813477 
	C670.491455,820.933411 673.116577,826.264771 671.504761,832.903320 
	C670.869507,835.519592 669.703979,836.822144 667.061462,837.493469 
	C645.203918,843.046997 624.232300,850.869629 603.967773,860.892151 
	C592.457642,866.584961 579.336853,867.402222 569.546143,858.411560 
	C554.876587,844.940674 537.303040,840.567810 518.812561,837.290100 
	C512.931885,836.247742 506.789185,835.350769 501.441956,832.908264 
	C490.203491,827.774841 478.438202,828.405579 467.042816,829.705322 
	C436.276062,833.214783 406.320068,830.151794 376.598206,822.033142 
	C355.420227,816.248291 334.089813,810.963745 312.168274,808.681702 
	C304.058624,807.837463 295.944092,806.936829 287.808319,806.473450 
	C277.850800,805.906372 269.872620,801.611816 263.580200,794.185486 
	C253.550140,782.348083 247.040298,768.382690 241.157791,754.260559 
	C237.762238,746.108704 238.749252,737.600342 244.431168,730.118591 
	C248.449875,724.826843 250.109741,718.470520 251.659286,712.162720 
	C254.922913,698.877563 262.321655,689.215637 274.947906,683.356018 
	C285.565063,678.428772 296.295624,674.062439 307.759003,671.534119 
	C310.666565,670.892944 313.323944,671.077698 316.073059,671.918823 
	C323.554108,674.207581 331.001740,676.621948 338.542969,678.694214 
	C353.179169,682.715881 367.213684,682.420898 379.753387,672.370178 
	C384.979584,668.181335 391.345612,667.905029 397.673462,667.214233 
	C421.058197,664.661499 442.328857,655.565491 463.250031,645.510864 
	C467.762817,643.342102 472.229614,641.195374 477.207611,640.230774 
	C481.611053,639.377502 484.915314,636.391296 488.399628,633.841370 
	C496.203430,628.130432 504.627869,624.130859 514.465332,623.396484 
	C519.975708,622.985107 525.041565,621.538635 526.797424,615.173096 
	C527.261902,613.489258 529.059021,612.793030 530.406494,611.844543 
	C548.113342,599.379578 566.766907,588.259155 583.540222,574.472656 
	C585.500793,572.861206 587.356934,572.850708 589.528687,573.789001 
	C602.604919,579.437988 613.634644,592.251221 604.488403,610.099487 
	C597.855896,623.042297 587.618958,632.237122 575.297058,639.417175 
	C567.790588,643.791260 559.813965,647.163452 551.725464,650.289978 
	C550.063843,650.932312 547.847595,651.199341 547.560059,653.399963 
	C546.463745,661.791626 540.166382,665.130066 533.521606,668.183594 
	C532.614197,668.600586 531.679688,668.958374 530.412109,669.497620 
M325.650055,795.078125 
	C328.493988,796.233215 331.126953,795.544922 333.938354,794.182861 
	C332.385132,793.321472 330.329468,794.934509 329.133026,792.117249 
	C332.024445,789.882080 334.605347,784.675964 338.567596,786.343018 
	C343.849976,788.565674 340.899506,793.669006 338.523407,798.321106 
	C341.044830,796.909119 342.649017,796.042542 344.220306,795.119995 
	C345.313751,794.478149 346.379089,794.095642 347.328125,795.268677 
	C348.325562,796.501404 347.594727,797.378784 346.647705,798.223816 
	C345.175385,799.537720 343.679169,800.854614 343.438416,802.927734 
	C344.094299,803.878296 345.000793,803.709106 345.775330,803.647217 
	C353.638092,803.019775 360.912720,804.562500 367.806305,808.605591 
	C371.820648,810.959900 376.458221,812.110474 381.104828,812.727661 
	C391.653290,814.128540 402.227112,815.338501 412.775024,816.743347 
	C416.262665,817.207886 419.701660,817.838806 420.758087,822.223572 
	C421.178467,823.968506 423.126343,824.406128 424.842133,824.603821 
	C426.991364,824.851624 429.139008,825.130981 431.294983,825.299500 
	C443.976196,826.291321 456.594116,826.820374 468.567291,821.184326 
	C472.621307,819.276062 476.141449,817.321960 476.615417,812.061829 
	C476.897583,808.930420 478.857422,806.176697 480.871582,803.689331 
	C484.906708,798.706238 490.355194,794.890564 492.854462,788.612366 
	C493.600830,786.737488 496.503571,785.344116 495.165466,783.068848 
	C493.938232,780.981995 491.449280,780.049744 488.968811,780.104187 
	C487.781189,781.942139 489.024231,784.118347 487.134277,785.733398 
	C483.696075,785.269836 480.507294,784.089905 479.071289,780.354492 
	C478.098389,777.823853 479.375214,775.821472 481.238586,774.185791 
	C484.217407,771.571167 487.032898,772.896301 489.977692,774.430237 
	C491.056549,774.992249 492.479706,776.449341 494.094208,774.399719 
	C491.744049,770.440552 483.522186,773.462341 483.559204,766.710022 
	C485.858826,764.659363 488.032227,767.436890 490.614410,765.653198 
	C487.917267,764.339294 485.773346,763.214478 485.708038,760.158813 
	C485.615845,755.842651 484.992584,751.540955 484.751282,747.224365 
	C484.358215,740.192627 484.798462,739.773621 491.671204,739.684937 
	C494.170197,739.652649 496.687042,739.769043 499.164490,739.514099 
	C509.526733,738.447815 513.762512,734.020630 514.700745,723.535278 
	C514.796143,722.468994 514.385620,721.107666 515.963989,720.642456 
	C517.780334,721.093079 517.965515,723.777344 520.177246,723.746887 
	C521.251709,721.821960 520.288025,718.950867 523.077820,717.686218 
	C529.946228,722.239441 532.842407,731.084045 540.623108,734.724182 
	C542.878296,732.370850 540.741455,729.716797 542.062866,727.799561 
	C544.242554,726.351379 546.769958,728.704163 548.800537,727.003296 
	C548.537964,718.598572 544.873474,713.367249 538.599854,713.543762 
	C534.820984,713.650085 533.175171,711.895386 531.699524,709.082642 
	C530.268372,706.354553 529.653748,703.430542 529.635803,699.809631 
	C528.292053,703.368042 530.563660,707.018066 527.452454,709.824707 
	C522.086304,705.605042 526.604065,699.262024 523.605286,693.815247 
	C523.275635,700.344788 524.415833,706.210876 521.374207,711.829895 
	C517.036743,709.743530 517.239258,706.097717 517.381958,702.731262 
	C517.522278,699.419312 518.314270,696.140259 518.599548,692.827759 
	C518.932983,688.956970 518.024048,687.305908 513.200012,688.053467 
	C502.810791,689.663391 496.309723,694.449097 495.134338,705.371460 
	C494.919250,707.369934 494.430328,709.911621 490.900360,708.755676 
	C490.497772,703.267456 494.995819,698.566772 493.649231,692.720459 
	C487.417023,691.471558 481.335327,693.974609 475.189514,692.736633 
	C469.020294,691.493958 463.469543,689.822815 460.311432,683.167908 
	C462.846832,682.514221 464.735809,682.027161 466.462433,681.582031 
	C467.495911,680.136047 465.543579,678.460388 467.371490,677.125061 
	C468.768005,677.384521 470.332031,677.675110 471.905609,677.967468 
	C472.038879,676.976440 471.929749,675.896179 472.239502,675.758484 
	C482.061829,671.393799 491.924805,667.120667 501.881927,662.789978 
	C502.160797,659.789917 499.038116,657.475037 499.961334,654.141113 
	C502.329041,654.141113 504.571655,654.141113 507.267761,654.141113 
	C506.018311,648.627686 503.518127,644.209290 500.516357,639.977844 
	C498.797638,641.534973 497.745789,642.964050 496.332703,643.673767 
	C492.885590,645.405029 491.725006,647.609924 493.539764,651.268799 
	C494.660583,653.528748 494.852753,655.978271 493.574493,658.221558 
	C491.098907,658.713623 489.838409,657.387695 488.789673,655.824951 
	C486.170410,651.922119 488.059235,647.862305 488.827301,643.360291 
	C479.191956,643.475098 471.079163,646.967651 462.693634,651.325439 
	C465.810211,654.693542 463.749146,656.100647 460.898529,657.236877 
	C458.683685,658.119934 456.423431,658.734558 454.094391,657.907593 
	C452.545410,657.357666 451.264923,657.844421 449.781677,658.211975 
	C443.698730,659.719116 440.718506,663.272766 440.104034,669.683350 
	C439.597870,674.963989 435.568787,676.025330 431.565613,672.552673 
	C430.086975,671.269897 429.143768,669.336487 426.994629,668.713928 
	C424.172119,669.259949 423.683563,674.063660 419.232178,672.321838 
	C409.445740,668.492615 399.675568,669.854004 390.034271,673.623657 
	C375.885193,679.155884 362.454834,686.143616 348.932556,693.005005 
	C339.173370,697.957031 328.965363,699.708374 319.186096,692.527771 
	C317.462158,691.261963 315.865417,691.283142 314.107544,692.328918 
	C312.247925,693.435303 310.382538,694.541321 308.458374,695.527832 
	C305.349945,697.121521 304.302399,695.574097 304.544403,692.654053 
	C301.756561,693.019043 298.795563,694.832031 297.046417,691.700256 
	C294.424011,687.005005 290.735168,687.664429 286.708527,688.946838 
	C282.756714,690.205444 279.000031,692.293823 274.736145,692.258606 
	C272.059540,692.236511 270.400391,693.443420 269.027710,695.549011 
	C265.298309,701.269348 261.485107,706.934998 257.733856,712.641235 
	C257.092072,713.617432 256.373077,714.712219 258.121185,715.530090 
	C260.838501,715.152954 259.826752,710.706909 263.670288,710.835266 
	C265.141083,715.713318 262.842041,719.336487 259.560120,722.463806 
	C254.593048,727.196777 249.585861,731.849182 247.274521,738.580383 
	C244.835220,745.684143 253.806686,757.205322 261.286041,756.532715 
	C261.893494,756.478149 262.432312,755.868591 263.051208,755.660095 
	C263.466431,755.520264 263.966858,755.633545 264.232727,755.633545 
	C265.617035,756.670166 265.515411,758.648438 265.898346,758.753052 
	C274.094177,757.048523 280.697906,760.046326 287.529144,759.884644 
	C290.667480,767.331360 288.913422,776.753113 296.751038,782.248840 
	C298.823212,779.648132 296.808563,776.682678 298.891022,774.704529 
	C301.707062,774.351929 303.613495,778.401123 306.122650,776.932678 
	C311.141907,773.995300 313.666595,777.513550 314.882172,780.698914 
	C317.065002,786.418823 321.076447,790.456421 325.650055,795.078125 
M553.130127,756.814941 
	C553.739929,759.332458 552.395996,760.562317 550.198792,761.150024 
	C546.790100,762.061829 543.275269,762.624023 539.824402,761.863281 
	C535.233398,760.851196 531.295715,761.945984 527.584534,764.574463 
	C524.944702,766.444092 522.339661,767.386169 518.780701,766.561279 
	C515.488892,765.798279 512.698975,767.850220 510.922607,771.062195 
	C514.184937,772.003052 517.075439,772.752441 519.910461,773.672729 
	C525.023132,775.332275 530.105042,776.964355 535.390869,774.325073 
	C536.747986,773.647522 538.109436,773.777222 538.966492,775.029053 
	C541.406860,778.593628 543.490662,776.511719 545.391724,774.605469 
	C548.844604,771.143066 550.819031,766.671997 553.300659,762.541138 
	C557.314575,755.859558 557.985962,755.776123 563.552612,761.105652 
	C565.796143,763.253540 567.933655,764.330505 570.193542,761.363892 
	C572.333679,758.554626 574.051392,759.934143 575.572998,761.874207 
	C577.282715,761.288696 577.089600,758.944946 579.489868,758.976196 
	C580.479309,762.443481 581.264526,766.138855 582.593750,769.626892 
	C584.482544,774.583740 588.628967,774.401245 593.041504,773.880920 
	C597.669006,773.335205 596.770203,770.030212 596.876709,767.170227 
	C596.994324,764.012085 596.940674,760.847473 597.064270,757.689758 
	C597.118408,756.306274 597.534241,754.970337 599.307617,754.968201 
	C600.798340,754.966431 601.200684,756.091248 601.408081,757.300415 
	C601.857056,759.918396 602.214844,762.554016 602.737427,765.156860 
	C603.643616,769.670593 606.072205,772.113586 611.072571,771.771423 
	C616.949768,771.369263 622.480530,769.592712 628.098755,768.127869 
	C629.456787,767.773804 630.236572,766.794861 630.764832,765.417053 
	C631.894226,762.471252 633.165527,759.572693 634.522339,756.723145 
	C636.212646,753.173218 635.364014,751.402039 631.263306,751.337341 
	C603.197571,750.894287 575.173767,751.972534 546.437256,753.312866 
	C548.943970,754.650269 551.527832,753.907715 553.130127,756.814941 
M527.926025,642.663696 
	C530.951111,643.419434 533.774109,644.984314 537.080566,645.074219 
	C537.816162,643.114563 539.027527,641.611511 540.302673,640.073242 
	C543.728882,635.940308 548.742004,634.948120 553.281677,632.978516 
	C556.506714,631.579285 560.169800,630.735535 561.954346,626.935181 
	C559.393433,625.408936 556.840210,626.209045 554.436584,625.920288 
	C552.466858,625.683777 550.305420,625.827881 549.772034,623.162048 
	C549.273987,620.672729 550.367493,619.016418 552.447327,617.800537 
	C555.028687,616.291443 557.644592,614.827881 560.130981,613.172546 
	C568.609863,607.527649 577.816467,603.334900 586.582947,599.308899 
	C588.917358,599.845703 587.541565,602.501526 589.516907,602.750793 
	C594.892883,599.918396 596.721191,596.991150 595.165527,593.736389 
	C593.409302,590.062012 588.602478,589.161316 583.777588,591.652649 
	C582.448608,592.338928 581.168579,593.129944 579.910522,593.941772 
	C575.414856,596.842957 571.523254,600.477539 567.517517,603.996338 
	C562.402588,608.489380 558.128174,614.555603 551.704651,616.800964 
	C543.748169,619.582214 537.284912,624.992371 529.419800,627.768005 
	C525.104309,629.291077 521.719238,632.412842 519.237915,636.263367 
	C517.939087,638.278870 517.471558,640.746887 519.231628,642.794922 
	C521.068726,644.932617 522.956909,644.098938 524.837646,642.515930 
	C525.304321,642.123108 526.404480,642.483032 527.926025,642.663696 
M650.424194,753.912292 
	C648.702209,755.076294 645.707520,755.290100 645.659180,757.755859 
	C645.588928,761.340759 646.277588,764.959839 646.873474,768.525757 
	C647.036438,769.500916 648.315430,769.856995 649.350159,769.822510 
	C656.721008,769.577209 663.938599,768.695679 669.878418,763.725342 
	C672.487549,761.542114 674.879883,759.010681 673.166809,755.203613 
	C671.508057,751.517212 668.520325,749.782166 664.401917,749.940796 
	C659.670166,750.123169 655.275085,751.431213 650.424194,753.912292 
M565.523438,812.131226 
	C572.319092,809.864868 579.608337,808.216309 581.839172,799.572693 
	C573.892578,797.439758 566.517151,797.867798 559.166504,799.721558 
	C551.558044,801.640198 551.568298,801.662964 550.503723,794.011658 
	C550.481018,793.848572 550.024170,793.745850 549.697388,793.577637 
	C546.634644,797.164429 546.673767,800.733398 549.722961,804.300781 
	C550.815369,805.578918 551.988525,806.909119 552.093079,808.603333 
	C552.304382,812.027893 554.539551,812.604309 557.246704,812.591248 
	C559.736145,812.579285 562.225037,812.439392 565.523438,812.131226 
M592.002563,691.649719 
	C593.480652,686.715820 593.420471,681.307861 596.254089,676.246826 
	C598.849548,679.290344 598.498352,682.671265 599.708557,685.798523 
	C600.084290,678.074890 601.308472,670.869751 605.249084,663.935486 
	C600.810913,664.840942 597.228638,666.148438 593.799500,667.843506 
	C589.774536,669.833069 586.325012,672.594849 585.688660,677.294495 
	C584.587097,685.429871 586.622986,693.186707 588.902954,702.006226 
	C591.106140,698.300659 591.196106,695.300598 592.002563,691.649719 
M594.994690,814.744812 
	C599.766785,821.313416 607.112427,821.581238 613.263489,814.938965 
	C607.510742,813.141602 601.910522,812.387146 596.175415,812.447266 
	C595.200684,812.457520 594.750610,813.129578 594.994690,814.744812 
M566.471802,678.732727 
	C562.771484,679.373779 559.071228,680.014832 555.223816,680.681335 
	C555.822144,682.710938 555.990295,684.559937 557.854858,685.330322 
	C560.469543,684.856445 560.400574,681.447510 563.389160,680.834290 
	C563.389160,684.746216 563.389160,688.418701 563.389160,693.087036 
	C566.443848,688.590088 567.327271,684.337280 569.000732,680.440430 
	C569.736816,678.726196 568.515625,678.481323 566.471802,678.732727 
M540.646912,682.449280 
	C539.773743,682.771545 538.586121,682.627014 538.379639,683.953796 
	C542.757080,686.730591 546.045898,686.110596 551.224976,681.525146 
	C547.830139,680.758972 544.667175,682.356873 540.646912,682.449280 
M661.907471,806.964050 
	C664.989563,805.912231 664.831482,804.534058 661.140137,800.275330 
	C658.332520,803.658081 658.332520,803.658081 661.907471,806.964050 
M533.859802,687.141479 
	C534.274231,686.107605 535.203247,684.682617 533.925598,684.094543 
	C532.002869,683.209656 530.054016,684.019836 527.838013,685.238953 
	C529.954712,686.535889 530.832336,689.150818 533.859802,687.141479 
z"/>
<path fill="#000000" opacity="1.000000" stroke="none" 
	d="
M339.345459,222.250732 
	C347.173401,218.457733 354.657715,214.461182 363.190979,214.369415 
	C376.565216,214.225586 389.704834,227.862122 390.233368,242.166092 
	C390.490723,249.130569 389.996399,256.084961 391.064240,263.066498 
	C391.752289,267.565094 389.501160,271.462433 385.793549,274.296417 
	C382.976440,276.449738 379.612823,277.483307 376.457336,278.967255 
	C365.266327,284.230011 353.470490,286.897644 341.265259,288.607178 
	C332.166229,289.881653 323.747528,293.739777 315.743988,298.327179 
	C299.960907,307.373657 283.248474,309.330780 265.619781,305.106445 
	C258.191040,303.326294 252.473160,299.705750 247.639679,293.558380 
	C243.182953,287.890259 238.758545,283.018799 243.475342,275.560120 
	C243.635574,275.306732 243.568771,274.909088 243.605591,274.578430 
	C245.179321,260.452911 246.018005,259.629333 260.013184,257.691315 
	C266.923859,256.734283 273.834900,255.748795 280.707886,254.557724 
	C293.221497,252.389145 304.616791,247.834122 314.315338,239.259399 
	C321.809631,232.633499 330.125275,227.071503 339.345459,222.250732 
M323.221558,239.777802 
	C321.081482,241.061737 318.922668,242.315536 316.804321,243.634369 
	C299.495331,254.410645 282.223755,265.078522 260.467926,263.599854 
	C256.481201,263.328888 252.589417,265.461273 250.262985,269.445770 
	C258.581604,273.916260 276.408447,275.857300 285.056946,273.187012 
	C288.616394,272.088043 292.202606,271.257385 295.849670,271.786438 
	C301.258240,272.570984 304.628235,270.658813 306.667358,265.533386 
	C308.308380,261.408569 311.325104,258.310913 315.571259,256.556610 
	C319.627533,254.880814 322.640076,255.436096 324.256317,259.999878 
	C325.361572,263.120911 326.722748,266.151276 327.969543,269.222198 
	C328.318359,268.014099 327.988098,267.099518 327.674713,266.179199 
	C325.058655,258.497192 328.462799,251.450851 336.124542,248.678619 
	C337.531616,248.169525 338.903992,247.527130 340.346802,247.160309 
	C349.705780,244.780899 349.745514,232.480881 346.837036,225.508804 
	C339.132294,230.163055 331.488800,234.780319 323.221558,239.777802 
M356.063080,252.453278 
	C355.460754,250.837067 355.878967,248.680176 353.555420,247.833038 
	C350.299377,249.950470 348.295746,253.271774 345.898071,256.200562 
	C344.892944,257.428375 344.621063,259.205597 345.673798,260.404358 
	C349.338348,264.577209 353.482391,268.229279 358.605591,272.072845 
	C360.731995,264.600586 357.022400,259.078827 356.063080,252.453278 
M367.854492,227.777786 
	C363.514160,223.078232 361.935608,223.420563 359.653198,229.813690 
	C363.577637,232.200516 368.505096,234.029037 367.787109,240.297913 
	C368.887177,236.254089 370.628265,232.399948 367.854492,227.777786 
z"/>
<path fill="#000000" opacity="1.000000" stroke="none" 
	d="
M668.685181,668.230835 
	C657.778442,654.158203 661.573730,636.113708 676.712158,627.428467 
	C680.464417,625.275818 683.964722,623.649109 688.388733,624.646301 
	C690.757141,625.180298 692.915161,623.868591 695.091125,623.050110 
	C714.199585,615.862122 733.695374,611.941650 754.200439,615.611938 
	C763.174011,617.218140 771.496887,620.433350 779.295532,625.006470 
	C783.986633,627.757507 785.862549,632.393311 786.255249,637.594910 
	C786.479980,640.572449 786.276917,643.583984 786.230713,646.579712 
	C786.186401,649.457703 784.966309,651.692444 782.496765,653.227478 
	C781.224915,654.018005 780.053528,655.009521 778.709412,655.637939 
	C768.433167,660.442383 758.651855,665.904602 750.244263,673.753723 
	C746.387878,677.354004 741.104126,678.234436 735.776184,678.295532 
	C723.970947,678.430847 711.723572,676.398438 700.483337,679.773682 
	C686.325806,684.024963 677.850342,676.640991 668.685181,668.230835 
M694.883606,644.438904 
	C694.883606,640.730225 694.883606,637.021606 694.883606,633.044861 
	C690.111206,634.933960 685.734131,637.274475 682.147583,640.766113 
	C677.860474,644.939880 678.502502,647.316162 684.053833,649.016541 
	C685.482849,649.454285 686.913757,649.887939 688.332275,650.358154 
	C694.689087,652.465515 694.908569,652.302246 694.883606,644.438904 
z"/>
<path fill="#000000" opacity="1.000000" stroke="none" 
	d="
M345.067078,775.812012 
	C335.493744,759.190857 336.297211,742.166931 348.795197,727.099854 
	C373.627716,697.162781 417.386169,683.661011 456.081848,708.172180 
	C482.079590,724.640076 485.930115,758.755066 465.273590,781.776184 
	C451.332153,797.313477 433.291565,803.410461 413.693237,806.315735 
	C384.667755,810.618591 362.580872,798.639160 345.067078,775.812012 
M382.349701,709.856750 
	C379.105774,712.196411 376.012848,714.708130 373.272339,717.639221 
	C359.130219,732.764893 359.769745,752.134338 374.797760,766.374634 
	C381.258331,772.496521 389.092377,775.285461 397.713623,776.270264 
	C417.735199,778.557312 434.702637,773.193542 446.456940,755.926636 
	C457.231232,740.099243 453.996796,721.143066 438.897247,709.319397 
	C424.696228,698.199219 398.885071,698.255798 382.349701,709.856750 
z"/>
<path fill="#000000" opacity="1.000000" stroke="none" 
	d="
M385.454102,695.680054 
	C379.815277,697.831177 374.469543,699.572693 368.830627,700.372070 
	C364.501740,700.985779 363.384857,698.831543 364.070129,695.171448 
	C365.243866,688.902405 369.468994,685.219360 375.315399,683.791077 
	C380.681763,682.480103 385.004333,680.091797 388.814148,676.040588 
	C392.540436,672.078125 395.659576,672.833679 397.851624,677.465271 
	C399.666077,681.299072 401.770050,681.806274 405.271576,679.288025 
	C406.730347,678.238953 407.720795,676.537781 409.623352,676.108887 
	C413.991455,681.725769 413.406860,684.066223 407.052826,686.722595 
	C404.456085,687.808228 401.893463,688.975586 399.367645,690.082764 
	C399.786072,696.610474 399.296509,696.989746 392.585815,695.426147 
	C390.311554,694.896240 388.047943,694.346191 385.454102,695.680054 
z"/>
<path fill="#000000" opacity="1.000000" stroke="none" 
	d="
M430.999878,684.013428 
	C430.838989,688.117249 428.744934,690.139709 425.261749,690.866455 
	C423.161530,691.304626 421.199158,690.851990 419.940155,689.059814 
	C417.854675,686.091064 418.573151,683.038391 420.242493,680.171082 
	C422.023193,677.112488 424.421417,674.672302 428.388306,673.168518 
	C429.276917,676.757629 430.125061,680.183350 430.999878,684.013428 
z"/>
<path fill="#000000" opacity="1.000000" stroke="none" 
	d="
M515.920105,704.390991 
	C515.832703,708.908386 512.108398,710.131226 509.991730,712.712341 
	C505.558929,706.293579 508.901978,693.876648 516.568604,688.971619 
	C518.461304,694.200623 516.229492,699.093811 515.920105,704.390991 
z"/>
<path fill="#000000" opacity="1.000000" stroke="none" 
	d="
M443.866058,688.214844 
	C446.883972,680.671936 449.376343,679.828064 453.545624,684.591614 
	C454.801117,686.026062 453.341583,693.766724 451.406158,696.121582 
	C449.213379,698.789551 446.955872,697.544617 444.768066,696.206238 
	C441.350098,694.115234 443.282776,691.242432 443.866058,688.214844 
z"/>
<path fill="#000000" opacity="1.000000" stroke="none" 
	d="
M475.127686,704.418640 
	C474.519501,706.300537 473.670349,707.574219 472.318207,708.288696 
	C469.475281,709.790894 466.516418,710.205750 464.146393,707.547913 
	C461.917786,705.048584 463.117584,702.530884 464.915283,700.379883 
	C467.381836,697.428711 470.698151,696.208862 474.426727,695.880493 
	C475.880188,698.722168 475.210602,701.387146 475.127686,704.418640 
z"/>
<path fill="#000000" opacity="1.000000" stroke="none" 
	d="
M319.578613,749.733643 
	C318.170471,749.276794 316.057770,748.697937 316.531769,748.080200 
	C319.661530,744.002075 313.869293,744.226318 313.737335,740.981018 
	C317.671906,741.343262 321.739471,741.125732 325.391510,742.253662 
	C328.002686,743.060059 326.866455,745.911499 325.637390,747.716064 
	C324.315216,749.657410 322.212555,750.133728 319.578613,749.733643 
z"/>
<path fill="#000000" opacity="1.000000" stroke="none" 
	d="
M438.143250,679.209961 
	C440.983185,685.013123 436.663544,687.274658 433.297516,691.156799 
	C432.326050,686.063049 432.037048,682.083252 432.885559,678.173767 
	C434.981171,677.239990 436.380859,678.283630 438.143250,679.209961 
z"/>
</svg>